<?xml version="1.0" ?><svg viewBox="0 0 64 64" xmlns="http://www.w3.org/2000/svg"><title/><g data-name="35-voice actor" id="_35-voice_actor"><polygon points="49 63 36 63 43 49 41 47 45 44 43.17 38.51 55 41 55 63 49 63" style="fill:#414952"/><polygon points="39 63 45 51 43 49 36 63 39 63" style="fill:#333940"/><polygon points="45.17 40.51 55 42.579 55 41 43.17 38.51 45 44 41 47 43 49 47 46 45.17 40.51" style="fill:#333940"/><polygon points="43.17 38.51 45 44 41 47 39 45 39 40 39 37.63 43.17 38.51" style="fill:#7e8596"/><polygon points="43 49 36 63 32 63 35.1 55.04 39 45 41 47 43 49" style="fill:#636978"/><polygon points="39 40 39 45 35.1 55.04 35 55 33 46 35 44 39 40" style="fill:#e9edf5"/><polygon points="39 37.63 39 40 35 44 32 41 36 37 39 37.63" style="fill:#cdd2e1"/><polygon points="35.1 55.04 32 63 28.9 55.04 29 55 31 46 33 46 35 55 35.1 55.04" style="fill:#19cffc"/><polygon points="35 44 33 46 31 46 29 44 32 41 35 44" style="fill:#19cffc"/><polygon points="32 41 29 44 25 40 25 37.63 28 37 32 41" style="fill:#cdd2e1"/><polygon points="28.9 55.04 32 63 28 63 21 49 23 47 25 45 28.9 55.04" style="fill:#636978"/><polygon points="31 46 29 55 28.9 55.04 25 45 25 40 29 44 31 46" style="fill:#e9edf5"/><polygon points="15 63 9 63 9 41 20.83 38.51 19 44 23 47 21 49 28 63 15 63" style="fill:#414952"/><polygon points="25 40 25 45 23 47 19 44 20.83 38.51 25 37.63 25 40" style="fill:#7e8596"/><polygon points="25 63 19 51 21 49 28 63 25 63" style="fill:#333940"/><polygon points="18.83 40.51 9 42.579 9 41 20.83 38.51 19 44 23 47 21 49 17 46 18.83 40.51" style="fill:#333940"/><path d="M45,14v3H42V14a10,10,0,0,0-20,0v3H19V14a13,13,0,0,1,26,0Z" style="fill:#ff7045"/><polygon points="34 27 34 30 30 30 30 29 30 27 34 27" style="fill:#ff7045"/><polygon points="24 17 24 24 21 24 18 24 18 17 19 17 22 17 24 17" style="fill:#ff7045"/><polygon points="46 17 46 24 40 24 40 17 42 17 45 17 46 17" style="fill:#ff7045"/><path d="M37,16.94c-1.57-.07-2.89-.18-4.01-.34C27,15.79,27,14,27,14a2.938,2.938,0,0,1-3,3H22V14a10,10,0,0,1,20,0v3H40Q38.365,17,37,16.94Z" style="fill:#414952"/><path d="M36,32v5l-4,4-4-4V32l.03-.06a7.964,7.964,0,0,0,7.94,0Z" style="fill:#ffb680"/><path d="M35.97,31.94a7.964,7.964,0,0,1-7.94,0L28,32v3l.03-.06a7.964,7.964,0,0,0,7.94,0L36,35V32Z" style="fill:#eb975d"/><path d="M30,29v1h4V27H30Zm7-12.06q1.365.06,3,.06v8a8.014,8.014,0,0,1-2.34,5.66,7.838,7.838,0,0,1-1.69,1.28,7.964,7.964,0,0,1-7.94,0A8.028,8.028,0,0,1,24,25V17a2.938,2.938,0,0,0,3-3s0,1.79,5.99,2.6C34.11,16.76,35.43,16.87,37,16.94Z" style="fill:#ffdaaa"/><path d="M30,32.74a7.822,7.822,0,0,0,4,0V30H30v2.74Z" style="fill:#eb975d"/><path d="M37,16.94c-1.57-.07-2.89-.18-4.01-.34C27,15.79,27,14,27,14a2.938,2.938,0,0,1-3,3v3a2.938,2.938,0,0,0,3-3s0,1.79,5.99,2.6c1.12.16,2.44.27,4.01.34q1.365.06,3,.06V17Q38.365,17,37,16.94Z" style="fill:#eb975d"/><rect height="3" style="fill:#f92814" width="6" x="40" y="17"/><rect height="3" style="fill:#f92814" width="6" x="18" y="17"/><path d="M24,17v8a8.028,8.028,0,0,0,4.03,6.94,7.964,7.964,0,0,0,7.94,0,7.838,7.838,0,0,0,1.69-1.28A8.014,8.014,0,0,0,40,25V17" style="fill:none;stroke:#000;stroke-linejoin:round;stroke-width:2px"/><polyline points="40 24 46 24 46 17 45 17 42 17 40 17" style="fill:none;stroke:#000;stroke-linejoin:round;stroke-width:2px"/><path d="M45,17V14a13,13,0,0,0-26,0v3" style="fill:none;stroke:#000;stroke-linejoin:round;stroke-width:2px"/><path d="M42,17V14a10,10,0,0,0-20,0v3" style="fill:none;stroke:#000;stroke-linejoin:round;stroke-width:2px"/><path d="M24,24H18V17h6a2.938,2.938,0,0,0,3-3s0,1.79,5.99,2.6c1.12.16,2.44.27,4.01.34q1.365.06,3,.06" style="fill:none;stroke:#000;stroke-linejoin:round;stroke-width:2px"/><polyline points="21 24 21 29 25.08 29 30 29" style="fill:none;stroke:#000;stroke-linejoin:round;stroke-width:2px"/><polygon points="34 30 30 30 30 29 30 27 34 27 34 30" style="fill:none;stroke:#000;stroke-linejoin:round;stroke-width:2px"/><path d="M31,13a4.243,4.243,0,0,1,1.99,3.6c.01.13.01.26.01.4" style="fill:none;stroke:#000;stroke-linejoin:round;stroke-width:2px"/><path d="M35,13s1.98,0,2,3.94V17" style="fill:none;stroke:#000;stroke-linejoin:round;stroke-width:2px"/><polyline points="28 32 28 37 25 37.63 20.83 38.51 9 41 9 63 15 63 28 63 32 63 36 63 49 63 55 63 55 41 43.17 38.51 39 37.63 36 37 36 32" style="fill:none;stroke:#000;stroke-linejoin:round;stroke-width:2px"/><polyline points="28 37 32 41 36 37" style="fill:none;stroke:#000;stroke-linejoin:round;stroke-width:2px"/><polyline points="39 37 39 37.63 39 40 35 44 32 41 29 44 25 40 25 37.63 25 37" style="fill:none;stroke:#000;stroke-linejoin:round;stroke-width:2px"/><polyline points="29 44 31 46 33 46 35 44" style="fill:none;stroke:#000;stroke-linejoin:round;stroke-width:2px"/><polyline points="25 40 25 45 28.9 55.04 32 63 35.1 55.04 39 45 39 40" style="fill:none;stroke:#000;stroke-linejoin:round;stroke-width:2px"/><line style="fill:none;stroke:#000;stroke-linejoin:round;stroke-width:2px" x1="31" x2="29" y1="46" y2="55"/><line style="fill:none;stroke:#000;stroke-linejoin:round;stroke-width:2px" x1="33" x2="35" y1="46" y2="55"/><polyline points="39 45 41 47 43 49 36 63" style="fill:none;stroke:#000;stroke-linejoin:round;stroke-width:2px"/><polyline points="25 45 23 47 21 49 28 63" style="fill:none;stroke:#000;stroke-linejoin:round;stroke-width:2px"/><polyline points="41 47 45 44 43.17 38.51 43 38" style="fill:none;stroke:#000;stroke-linejoin:round;stroke-width:2px"/><polyline points="23 47 19 44 20.83 38.51 21 38" style="fill:none;stroke:#000;stroke-linejoin:round;stroke-width:2px"/><line style="fill:none;stroke:#000;stroke-linejoin:round;stroke-width:2px" x1="49" x2="49" y1="63" y2="50"/><line style="fill:none;stroke:#000;stroke-linejoin:round;stroke-width:2px" x1="15" x2="15" y1="63" y2="50"/></g></svg>