<svg xmlns="http://www.w3.org/2000/svg" viewBox="0 0 64 64"><defs><style>.cls-1,.cls-7{fill:#006064;}.cls-1{stroke:#006064;}.cls-1,.cls-4,.cls-6,.cls-8,.cls-9{stroke-linecap:round;stroke-linejoin:round;}.cls-1,.cls-3,.cls-4,.cls-6,.cls-8,.cls-9{stroke-width:2px;}.cls-2{fill:#fff;}.cls-3{fill:#f57e17;stroke:#f57e17;stroke-miterlimit:10;}.cls-4{fill:#4f4f4f;stroke:#4f4f4f;}.cls-5{fill:#8d6e63;}.cls-6{fill:#3eb51d;}.cls-6,.cls-8{stroke:#3eb51d;}.cls-8,.cls-9{fill:none;}.cls-9{stroke:#6989ff;}</style></defs><title>idcard</title><g id="idcard"><rect class="cls-1" x="1" y="15" width="62" height="40"/><rect class="cls-2" x="4" y="18" width="56" height="34"/><path class="cls-3" d="M28.63,45H22.5V40h-5v5H11.87C9.46,45,7,46.68,7,48.74V51H33V48.32C33,46.48,30.77,45,28.63,45Z"/><path class="cls-4" d="M29,36.5l.5-6.1A7.18,7.18,0,0,0,22.56,23H17.44a7.18,7.18,0,0,0-6.94,7.4l.5,6.1"/><path class="cls-5" d="M16.68,31.94c-5,0-5.68-4.33-5.68.48v4a11.86,11.86,0,0,0,2.76,7A8.21,8.21,0,0,0,20,46a8.21,8.21,0,0,0,6.24-2.5,11.86,11.86,0,0,0,2.76-7v-4C29,27.61,21.65,31.94,16.68,31.94Z"/><path class="cls-6" d="M36,19H28L26.36,8.36a2,2,0,0,1,2-2.36h7.23a2,2,0,0,1,2,2.36Z"/><polygon class="cls-7" points="33.33 15 30.67 15 30 10 34 10 33.33 15"/><line class="cls-8" x1="30" y1="21" x2="30" y2="20"/><line class="cls-8" x1="34" y1="21" x2="34" y2="20"/><line class="cls-9" x1="38" y1="26" x2="54" y2="26"/><line class="cls-9" x1="38" y1="30" x2="46" y2="30"/><line class="cls-9" x1="38" y1="34" x2="55" y2="34"/><line class="cls-9" x1="38" y1="38" x2="51" y2="38"/><line class="cls-9" x1="38" y1="42" x2="46" y2="42"/><line class="cls-9" x1="38" y1="47" x2="46" y2="47"/></g></svg>