<?xml version="1.0" ?><svg id="Layer_1" style="enable-background:new 0 0 512 512;" version="1.1" viewBox="0 0 512 512" xml:space="preserve" xmlns="http://www.w3.org/2000/svg" xmlns:xlink="http://www.w3.org/1999/xlink"><style type="text/css">
	.st0{fill:url(#SVGID_1_);}
	.st1{fill:#2D548D;}
	.st2{opacity:9.000000e-02;fill:#AAAAD5;}
	.st3{opacity:0.2;fill:#EEEDF3;}
	.st4{fill:#EEEDF3;}
	.st5{fill:#C9C7D9;}
	.st6{opacity:0.1;fill:#3F3F3F;}
	.st7{fill:url(#SVGID_2_);}
	.st8{fill:#FFFFFF;}
	.st9{fill:#E2E1E1;}
	.st10{fill:#E83C3B;}
	.st11{fill:#F8AA09;}
	.st12{fill:#FBBA38;}
	.st13{fill:#EE9F05;}
	.st14{fill:url(#SVGID_3_);}
	.st15{fill:#EDB7D5;}
	.st16{fill:#E83B5B;}
	.st17{fill:#EE7375;}
	.st18{fill:#E2E2E1;}
	.st19{fill:#D7DDE9;}
	.st20{fill:#ED9558;}
	.st21{fill:#ED8C61;}
	.st22{fill:#F6AD86;}
	.st23{fill:#E8E8E8;}
	.st24{fill:#3A63A9;}
	.st25{fill:#658BC1;}
	.st26{fill:#C8D6DB;}
	.st27{fill:#82AACE;}
	.st28{fill:#4E7DB0;}
	.st29{fill:#424344;}
</style><g><linearGradient gradientUnits="userSpaceOnUse" id="SVGID_1_" x1="479.2063" x2="-28.1312" y1="461.3506" y2="-4.7129"><stop offset="0" style="stop-color:#6FC7DA"/><stop offset="0.3693" style="stop-color:#0D71B9"/><stop offset="0.7613" style="stop-color:#9E1460"/><stop offset="1" style="stop-color:#E7267A"/></linearGradient><path class="st0" d="M191.7,101.3c-10,4.2-48.7,20.3-70.3,62c-4.6,8.9-26.2,50.6-10.3,87.4c21.1,48.8,85.3,36.9,114.8,82.8   c25.3,39.5-27.2,78.3-4.6,125.3c11.8,24.5,39,45,64.1,46.9c78.5,5.9,219.5-163.2,162.2-295.9C405.8,113.4,272.6,67.6,191.7,101.3z"/><g><g><g><g><path class="st1" d="M351.7,177.1l-144.5-53.6c-4.4-1.6-9.2,0.6-10.8,5L98.8,391.2c-1.6,4.4,0.6,9.2,5,10.8l144.5,53.6       c4.4,1.6,9.2-0.6,10.8-5l97.6-262.8C358.3,183.5,356.1,178.7,351.7,177.1z"/></g></g></g></g><path class="st2" d="M265.1,311.7c-3.6,0-7.3-0.1-11.1-0.3c-56.1-3.1-101.9-28.1-122.5-66.8c-32.9-61.8-0.6-147.9,48.9-175   c25-13.8,46.7-13.4,60.5-10.6c23.6,4.7,41,15.6,49,30.6c8.6,16.1,4,31.2-0.9,47.1c-4.4,14.3-8.9,29-3.5,44.9   c4.8,14.2,17.3,18.6,30.6,23.3c13.5,4.8,27.5,9.7,35,25.2c7.9,16.4,6.9,38.8-2.2,52.3C336.5,300.4,303.7,311.7,265.1,311.7z    M225.3,58.6c-12.3,0-27.6,2.8-44.3,12l0,0c-49,26.9-81,112.3-48.4,173.5c20.4,38.4,65.9,63.1,121.6,66.2   c42.8,2.4,80.5-9.1,93.8-28.5c8.9-13.1,9.9-35.1,2.1-51.1c-7.3-15.1-21-19.9-34.3-24.6c-13.5-4.8-26.3-9.3-31.3-24   c-5.5-16.3-0.9-31.2,3.5-45.7c4.8-15.7,9.4-30.6,1-46.3c-7.8-14.7-25-25.4-48.2-30C236.3,59.2,231.1,58.6,225.3,58.6z M180.7,70.1   L180.7,70.1L180.7,70.1z"/><g><polygon class="st3" points="316.7,164.1 300.7,174.8 161,268.6 138.9,283.5 169.3,201.4 191.5,186.5 241.6,152.8 257.6,142.1       "/><polygon class="st3" points="348.5,175.9 332.5,186.6 144.6,312.8 144.6,312.8 122.4,327.6 133.2,298.7 133.2,298.7 155.3,283.9     155.3,283.8 311.7,178.9 327.7,168.1   "/></g><path class="st4" d="M351.7,177.1l-3.2-1.2l-20.8-7.7l-11-4.1l-59.1-21.9l-50.4-18.7c-4.3-1.6-9.2,0.6-10.8,5l-27.1,73l-30.5,82.1   l-5.7,15.3v0l-10.7,28.9l-23.6,63.6c-0.3,0.8-0.4,1.6-0.5,2.4c-0.3,3.6,1.9,7.1,5.5,8.4l26.8,10l20.2,7.5l53.4,19.8l19.5,7.2   l24.6,9.1c4.3,1.6,9.2-0.6,10.8-4.9l95.8-258l1.8-4.8C358.3,183.5,356.1,178.7,351.7,177.1z M338,193.4l-2,5.5l-82.5,222.3   c-0.9,2.3-3.5,3.6-5.9,2.7l-18.1-6.7l-21.9-8.1l-45.2-16.8l-20.7-7.7l-16.5-6.1c-1.8-0.7-2.9-2.3-2.9-4.1c0-0.6,0-1.2,0.3-1.8   l22.2-59.7v0l10.7-28.9v0l5.7-15.3l30.5-82.1l15.5-41.7c0.9-2.3,3.5-3.6,5.8-2.7l28.8,10.7l59.1,21.9l11,4.1l20.8,7.7l2.7,1   C337.7,188.5,338.9,191.1,338,193.4z"/><g><g><path class="st5" d="M172,418L172,418c-4.1-1.5-6.2-6.1-4.7-10.2l0,0c1.5-4.1,6.1-6.2,10.2-4.7l0,0c4.1,1.5,6.2,6.1,4.7,10.2l0,0     C180.6,417.5,176,419.5,172,418z"/></g></g><g><path class="st6" d="M268.6,22.1L66.9,88.9c-4.9,1.6-7.5,6.9-5.9,11.7l19.6,59c1.6,4.9,6.9,7.5,11.7,5.9l19.9-6.6l9.7-3.2    c2.5,1.6,8.7,5.8,11.2,7.3c2.3,1.3,5.3,0.3,6.4-2.1c1.2-2.7,3.7-9.7,4.7-12.5l49-16.3L294,98.7c4.9-1.6,7.5-6.9,5.9-11.7l-19.6-59    C278.7,23.1,273.5,20.5,268.6,22.1z"/><g><g><linearGradient gradientTransform="matrix(0.9719 -0.2354 0.2354 0.9719 -301.7077 121.8157)" gradientUnits="userSpaceOnUse" id="SVGID_2_" x1="537.6837" x2="378.8217" y1="190.9077" y2="-87.6263"><stop offset="0" style="stop-color:#6FC7DA"/><stop offset="1" style="stop-color:#9E1460"/></linearGradient><path class="st7" d="M268.6,6.5L52.2,78.2c-5.2,1.7-8,7.4-6.3,12.6l21,63.3c1.7,5.2,7.4,8,12.6,6.3l21.3-7.1l10.4-3.4      c2.6,1.8,9.3,6.2,12,7.8c2.4,1.4,5.7,0.3,6.9-2.3c1.2-2.9,4-10.5,5-13.4l52.6-17.4l108.2-35.9c5.2-1.7,8-7.4,6.3-12.6l-21-63.3      C279.5,7.6,273.9,4.8,268.6,6.5z"/><path class="st8" d="M107,107.9c1.5-2.6,1.9-5.8,0.9-8.9l-1.7-5.1c-1.9-5.7-7.9-9.2-13.7-7.5c-6,1.8-9.2,8.1-7.3,14l1.8,5.6      c1,3.1,3.3,5.4,6,6.6c-6.2,4.7-9.8,12.2-9.3,20.1c0.2,3.1,3.3,5,6.2,4.1l33.8-11.2c2.9-1,4.2-4.4,2.6-7      C122.1,111.8,114.8,107.9,107,107.9z"/><g><path class="st8" d="M188.4,54.5l-43.1,14.3c-3.5,1.2-5.4,5-4.3,8.5l7,21.2c1.2,3.5,5,5.4,8.5,4.3l4.2-1.4c0,0,8,5.4,10.7,7       c2,1.1,4.7,0.3,5.6-1.9c1.3-2.9,4.5-12,4.5-12l18.1-6c3.5-1.2,5.4-5,4.3-8.5l-7-21.2C195.7,55.2,191.9,53.3,188.4,54.5z"/><path class="st9" d="M152.8,78.6c-1.4,0.3-2.9-0.4-3.3-1.8c-0.5-1.5,0.3-3.1,1.8-3.5l35-11.6c1.4-0.5,3.1,0.3,3.5,1.8       c0.5,1.5-0.3,3.1-1.8,3.5l-35,11.6C152.9,78.6,152.9,78.6,152.8,78.6z"/><path class="st9" d="M155.8,87.8c-1.4,0.3-2.9-0.4-3.3-1.8c-0.5-1.5,0.3-3.1,1.8-3.5l35-11.6c1.4-0.5,3.1,0.3,3.5,1.8       c0.5,1.5-0.3,3.1-1.8,3.5l-35,11.6C156,87.7,155.9,87.8,155.8,87.8z"/><path class="st9" d="M158.9,96.9c-1.4,0.3-2.9-0.4-3.3-1.8c-0.5-1.5,0.3-3.1,1.8-3.5l15.8-5.2c1.4-0.5,3,0.3,3.5,1.8       c0.5,1.5-0.3,3.1-1.8,3.5l-15.8,5.2C159,96.9,159,96.9,158.9,96.9z"/></g><path class="st8" d="M278.2,64.5c-1.4-4.3-4.2-7.9-7.6-10.3l-1.5-4.6c-2.6-7.7-10.2-12.2-18-11.1l-0.4-1.3      c-0.5-1.5-2.1-2.3-3.6-1.8c-1.5,0.5-2.3,2.1-1.8,3.6l0.4,1.3c-6.9,3.7-10.3,11.9-7.8,19.6l1.5,4.6c0,0,0,0,0,0      c-1.3,4-1.4,8.5,0,12.8l0.7,2c0.3,1,1.4,1.6,2.4,1.2l7.7-2.6c0.1,0.6,0.4,1.2,1.1,1.4c3.2,1.1,6.8,1.1,10.3,0      c3.5-1.1,6.3-3.3,8.3-6.1c0.4-0.6,0.4-1.3,0.1-1.8l7.7-2.6c1-0.3,1.6-1.4,1.2-2.4L278.2,64.5z"/></g><path class="st10" d="M245.4,77.2c1.5,4.5-1,9.5-5.5,11c-4.5,1.5-9.5-1-11-5.5c-1.5-4.5,1-9.5,5.5-11     C239,70.2,243.9,72.6,245.4,77.2z"/></g></g><g><path class="st6" d="M486.2,192l-55.3-6.6c-2.4-0.3-4.5,1.4-4.8,3.8l-6.6,55.3c-0.3,2.4,1.4,4.5,3.8,4.8l55.3,6.6    c2.4,0.3,4.5-1.4,4.8-3.8l6.6-55.3C490.3,194.5,488.6,192.3,486.2,192z"/><g><path class="st11" d="M492.7,248.2l-64.6-7.7c-1.1-0.1-1.9-1.1-1.7-2.2l7.7-64.6c0.1-1.1,1.1-1.9,2.2-1.7l64.6,7.7     c1.1,0.1,1.9,1.1,1.7,2.2l-7.7,64.6C494.8,247.5,493.8,248.3,492.7,248.2z"/><path class="st12" d="M433.3,233.4l6.4-53.5c0.1-0.7,0.7-1.1,1.3-1.1l53.5,6.4c0.7,0.1,1.1,0.7,1.1,1.3l-6.4,53.5     c-0.1,0.7-0.7,1.1-1.3,1.1l-53.5-6.4C433.7,234.7,433.3,234.1,433.3,233.4z"/><path class="st13" d="M465.8,214.6l-6.2,4.9c-1.1,0.9-2.8,0.7-3.7-0.4l0,0c-0.9-1.1-2.5-1.3-3.7-0.4l-9.1,7.2     c-1.8,1.4-1,4.4,1.3,4.7l1.1,0.1l21.5,2.6l12.1,1.4c2.3,0.3,3.8-2.4,2.4-4.2L469.5,215C468.6,213.9,466.9,213.7,465.8,214.6z"/><path class="st13" d="M454.7,204.2c-0.3,2.5-2.6,4.3-5.1,4c-2.5-0.3-4.3-2.6-4-5.1c0.3-2.5,2.6-4.3,5.1-4     C453.2,199.4,455,201.7,454.7,204.2z"/></g></g><g><path class="st6" d="M136.6,348.9c-2.1-6.7-9.2-10.4-15.9-8.3l-81.6,25.8c-6.7,2.1-10.4,9.2-8.3,15.9l16.8,53.1    c2.1,6.7,9.2,10.4,15.9,8.3l8-2.5c0,0,14.9,10.3,20.1,13.4c3.7,2.2,8.8,0.6,10.6-3.4c2.5-5.5,8.7-22.5,8.7-22.5l34.2-10.8    c6.7-2.1,10.4-9.2,8.3-15.9L136.6,348.9z"/><g><linearGradient gradientUnits="userSpaceOnUse" id="SVGID_3_" x1="161.1525" x2="36.0077" y1="397.0569" y2="383.3692"><stop offset="0" style="stop-color:#6FC7DA"/><stop offset="0.6927" style="stop-color:#9E1460"/><stop offset="1" style="stop-color:#E7267A"/></linearGradient><path class="st14" d="M106.6,328.5l-87.5,27.7c-7.2,2.3-11.1,9.9-8.9,17.1l18,57c2.3,7.2,9.9,11.1,17.1,8.9l8.5-2.7     c0,0,16,11.1,21.5,14.4c4,2.4,9.5,0.6,11.4-3.6c2.7-5.9,9.3-24.2,9.3-24.2l36.7-11.6c7.2-2.3,11.1-9.9,8.9-17.1l-18-57     C121.5,330.2,113.8,326.2,106.6,328.5z"/><path class="st15" d="M106.9,358l-71,22.5c-2.3,0.7-4.8-0.5-5.5-2.9c-0.7-2.3,0.6-4.8,2.9-5.5l71-22.5c2.3-0.7,4.8,0.5,5.5,2.9     C110.5,354.8,109.2,357.3,106.9,358z"/><path class="st15" d="M113.2,378.1l-71,22.5c-2.3,0.7-4.8-0.5-5.5-2.9c-0.7-2.3,0.6-4.8,2.9-5.5l71-22.5c2.3-0.7,4.8,0.5,5.5,2.9     C116.8,374.8,115.5,377.3,113.2,378.1z"/><path class="st15" d="M80.6,410.4l-32,10.1c-2.3,0.7-4.8-0.6-5.5-2.9c-0.7-2.3,0.6-4.8,2.9-5.5l32-10.1c2.3-0.7,4.8,0.6,5.5,2.9     C84.2,407.2,82.9,409.7,80.6,410.4z"/></g></g><g><path class="st6" d="M285.5,229.2c-1.2-5.1-8-6.2-10.8-1.7l-11.2,18.1l-6.3-26.3c-1.3-5.3-6.6-8.6-11.9-7.3L173,229.2    c-5.3,1.3-8.6,6.6-7.3,11.9l17.2,72.3c1.3,5.3,6.6,8.6,11.9,7.3l72.3-17.2c5.3-1.3,8.6-6.6,7.3-11.9l-6.3-26.3l18.1,11.2    c4.5,2.8,10.1-1.3,8.8-6.4L285.5,229.2z"/><g><path class="st16" d="M283.3,207.8l-12,19.5l-6.7-28.2c-1.4-5.7-7.1-9.2-12.8-7.9l-77.6,18.5c-5.7,1.4-9.2,7.1-7.9,12.8     l18.5,77.6c1.4,5.7,7.1,9.2,12.8,7.9l77.6-18.5c5.7-1.4,9.2-7.1,7.9-12.8l-6.7-28.2l19.5,12c4.8,3,10.8-1.4,9.5-6.9l-10.5-43.9     C293.6,204.2,286.3,203,283.3,207.8z"/><polyline class="st8" points="210.9,228.7 239.3,246.1 221.8,274.5    "/></g></g><g><rect class="st10" height="67.5" transform="matrix(0.9875 -0.1573 0.1573 0.9875 -56.8767 49.3166)" width="119.5" x="223.4" y="350.2"/><polygon class="st17" points="283.1,384 336.8,341.3 218.8,360.1   "/></g><g><path class="st18" d="M360.8,455.7h67.5c2,0,3.7-1.7,3.7-3.7l0,0c0-2-1.7-3.7-3.7-3.7h-67.5c-2,0-3.7,1.7-3.7,3.7l0,0    C357.1,454.1,358.7,455.7,360.8,455.7z"/><g><g><polygon class="st19" points="383.1,440 379.9,420.5 388.7,417.8 390.1,438.6     "/><path class="st20" d="M390.4,436.5c0.6,0.1,1.1,0.3,1.6,0.7c3.1,2.6,12.6,7.2,17.4,7.9c5.2,0.8,5.5,3.3-1.9,3.3      c-7.3,0-12.7-0.7-15.9-0.6c-3.3,0.1-2.4,0.6-10.4,0.6c-6.2,0-4.2-7.9-2-11.5c0.7-1.1,1.6-1.7,2.9-1.6L390.4,436.5z"/></g><g><polygon class="st19" points="354.8,421.8 367,406.3 374.9,411 360.6,426     "/><path class="st20" d="M362.4,424.8c0.3,0.5,0.6,1,0.6,1.6c0.2,4,3.3,14.4,7,17.7c3.7,3.4,1.3,4.2-4.7,1.4      c-6.6-3.1-8.1-9.8-10.4-12.1s-2.1-1.4-7.5-7.3c-4.2-4.5,2.9-8.4,7.1-9.3c1.3-0.3,2.3,0,3.1,1.1L362.4,424.8z"/></g><g><g><path class="st21" d="M349.3,92.2c0,0-2.4,16,2.2,23.4c4.6,7.4,5.3,8.5,5.3,8.5"/><path class="st22" d="M361.1,131.2c-1.3,0.8-2.8,1.2-4.2,1.2c-2.8,0-5.6-1.4-7.1-4.1c-0.1-0.1-0.9-1.5-5.2-8.3       c-3-4.8-4-11.3-4.1-17c-0.2-5.6,0.4-10.4,0.7-12c0.7-4.5,4.9-7.7,9.5-7c4.5,0.7,7.7,4.9,7,9.5c-0.4,2.4-0.5,5.2-0.5,7.8       c0,2.7,0.2,5.3,0.6,7.2c0.2,1.1,0.5,2.1,0.9,2.7c4.7,7.5,5.4,8.7,5.4,8.7C366.4,123.8,365.1,128.9,361.1,131.2z"/></g><path class="st23" d="M330.4,222.8c1.7-23.9-6.3-83.2-10.4-106.8c-0.6-3.6,2.1-6.9,5.8-6.9h49.1c2.6,0,5,1.8,5.7,4.3      c5.6,21.4,9.2,109.3,9.2,109.3H330.4z"/><path class="st22" d="M411.5,173.1c-0.8-4.5-6.3-16-12.4-28c-6.5-12.7-13.8-26.1-17.2-32.1c-1.9-3.4-6.2-4.6-9.6-2.8      c-3.4,1.9-4.6,6.2-2.8,9.6c5.2,9.4,10.5,19.3,15.2,28.2c5.3,10.2,10.4,16.4,12.5,21.4c-3.8,3.3-13.3,3.6-20.8,3.1      c-2.1-0.2-10.1-0.8-15.4,4.1c-2.1,1.9-4.5,5.4-4.3,10.9c0.2,3.8,0.7,5.3,4.1,7c1.4,0.7,3.2,0.8,4.7,0.7c3.9-0.5,4.2-2.6,4.2-7.1      c0-3.2,1.7-6.4,1.7-6.4c0,0,11.4,2.8,20.9,4c9.5,1.2,13.4-0.7,16.9-4.6C411.2,178.8,412,175.9,411.5,173.1z"/><path class="st24" d="M333,261.4c0,0-7.2-13.2-2.6-38.6h59.3c0,0,0.8,19.3-0.5,38.6H333z"/><path class="st21" d="M399,145.1l-6.9,1.4l-7.4,1.5c-4.6-8.9-10-18.9-15.2-28.2c-1.9-3.4-0.6-7.7,2.8-9.6      c3.4-1.9,7.7-0.6,9.6,2.8C385.2,119,392.5,132.4,399,145.1z"/><path class="st22" d="M332.3,114.7c-0.9-3.8-4.8-6.1-8.5-5.1c-17,4.2-28.8,8-37,11.5c-18.9,8-18.7,13.9-18.7,16.9      c0.1,3.4,0.8,10.1,41.5,24.9c0,1.2-1.3,5.8-2.1,7.3c-1.9,3.4,0.1,6.7,2.1,10c0.7,1.1,2.3,2.5,4.2,2.5c2.5,0,5.6-3.2,6-5.8      c1.5-9.5,1.3-15.1,0.8-16.2c0,0,0,0,0,0c0,0,0,0,0,0c0-0.1-0.1-0.2-0.1-0.3c-0.2-0.3-0.3-0.6-0.5-0.9c-0.1-0.2-0.3-0.3-0.4-0.5      c-0.2-0.2-0.3-0.4-0.5-0.5c-0.3-0.3-0.6-0.5-0.9-0.7c-0.1,0-0.1-0.1-0.2-0.1c-0.5-0.3-1-0.6-1.5-0.8      c-13.8-5.7-26.7-14.9-32.4-18.9c2-1.1,4.8-2.5,8.3-3.8c8.7-3.5,21.5-7.6,34.6-10.8C330.9,122.3,333.2,118.5,332.3,114.7z"/><path class="st23" d="M400.1,142l-9.5,1.8l-7.4,1.4h0l-6.3,1.2c-8.1-15.9-10-19.5-10.3-24.9c-0.3-6.1,1.3-9.2,5.3-11.4      c4-2.2,9-0.8,11.2,3.2C383.3,113.6,391.9,125.9,400.1,142z"/><path class="st24" d="M425.9,339.8c-0.9,5.8-4,12.1-8.4,19.8c-7.4,12.8-18.7,27.1-28.9,39c-7.1,8.3-13.6,15.5-17.7,20.4      c-1.8,2.1-3.2,3.8-4,4.9l-8.4-10.8c3.1-4.4,6-10.3,9.6-15.8c0.1-0.1,0.2-0.3,0.3-0.4c6.8-10.3,14.1-21.9,19.9-32.5      c0.2-0.4,0.4-0.7,0.6-1.1c6.2-11.2,10.8-21.1,11.7-26.9c1.6-10.3-13.9-42.5-29.2-70.9c-1.7-3.3-3.5-6.5-5.2-9.6      c-0.6-1.1-0.9-2.2-1-3.4c-0.4-5.2,3.4-11.2,8.1-13.8c5.7-3.2,13.1-4.8,16.3,0.9C396.1,251.4,429.8,314.5,425.9,339.8z"/><path class="st1" d="M388.6,398.6c-7.1,8.3-13.6,15.5-17.7,20.4c-0.7-5.8-1.4-12.1-2.1-18.5c-0.1-1.2-0.3-2.5-0.4-3.7      c6.8-10.3,14.1-21.9,19.9-32.5C388.7,374.8,388.7,387.1,388.6,398.6z"/><path class="st24" d="M387.1,343c-2.9-23.7-22.8-87.4-25.9-94.4c-2.6-6-17-7.3-23-4.6c-6,2.6-8.7,9.6-6.1,15.6      c8,18.2,30.7,66.9,33,84.1c1.3,10.3,3.1,31,6.3,48.7c2.3,12.3,4.6,24.3,6.3,33c1.5,7.6,1.5,6.2,1.6,6.9l14.2-2.2      C393.5,430.1,390.5,371,387.1,343z"/><path class="st21" d="M327.1,123.2c-13.1,3.2-25.9,7.3-34.6,10.8l-5.8-13c8.2-3.4,20-7.3,37-11.5c3.8-0.9,7.6,1.4,8.5,5.1      C333.2,118.5,330.9,122.3,327.1,123.2z"/><path class="st23" d="M323.9,109.3c4.5-0.7,7.8,1.5,9,5.9c1.2,4.4-1.8,7.8-5.8,10.1c-4.8,2.8-6.5,3.4-26.8,10.4L289,120.1      C315,110,316.3,110.4,323.9,109.3z"/><path class="st21" d="M357.7,108.5c-0.4,0-0.8,0-1.1,0c-6.1,0-11.7-2-16.1-5.5c-0.2-5.6,0.4-10.4,0.7-12c0.7-4.5,4.9-7.7,9.5-7      c4.5,0.7,7.7,4.9,7,9.5c-0.4,2.4-0.5,5.2-0.5,7.8C357,103.9,357.2,106.5,357.7,108.5z"/><path class="st22" d="M381.2,78.9c-3.3,15.3-11.8,26.5-26.5,26.5c-14.6,0-23.8-11.1-26.5-26.5c-2.4-14.4,11.9-28.5,26.5-28.5      C369.5,50.3,384.3,64.6,381.2,78.9z"/><path class="st25" d="M383.2,432.4l-0.1-0.4c-4-24.8-10.1-62.2-13.1-85.8c-2.2-17.2-23.5-68.2-31.5-86.4      c-0.1-0.1-0.1-0.3-0.1-0.4c0-0.1,0-0.1-0.1-0.2c-1.3-3.5-5.2-16.5-1.5-37l1.2,0.2c-3.7,20.2,0.2,32.9,1.4,36.4      c0,0.1,0.1,0.2,0.1,0.3c0,0.1,0,0.2,0.1,0.3c8,18.2,29.3,69.4,31.5,86.7c3.1,23.5,9.1,61,13.1,85.8l0.1,0.4L383.2,432.4z"/></g><path class="st26" d="M364.2,109.2c0,3.6-1.4,9.6-10.8,9.6c-6.8,0-15.4-2.9-18.6-8.4l-0.7-1.2H364.2z"/><path class="st22" d="M336.9,109.2c2.5,4.4,10,7.2,16.5,7.2c6.5,0,8.4-3.2,8.4-7.2H336.9z"/><g><path class="st27" d="M372.5,183.1c0-0.1,0.4-4.1-3.8-9.9l3.9-2.3c4.9,7.3,4.4,12.5,4.4,12.8L372.5,183.1z"/><path class="st28" d="M369.5,171c2.2-1,5.1-0.5,6.6,1.1c1.4,1.6,0.8,3.8-1.5,4.8c-2.2,1-5.1,0.5-6.6-1.1      C366.6,174.1,367.2,172,369.5,171z"/></g><path class="st29" d="M380.6,59.3c-8-12.9-27.7-13.9-31.5-13.7c-2,0.1-6.4,1.3-8.3,4.3c-0.1-2.1,0-4,0-4c-1.7,2.1-2,3.9-1.7,5.3     c-1.2-1.6-2-3.3-2-3.3c-0.3,2.2,0.3,3.5,1.2,4.2c-5.4,1.3-12.3,8.9-9.9,24.5c1,6.8,16.4,1.6,20.7-5.2c2.9,4.7,8.7,5.7,8.7,5.7     c-2-2-3.8-5-5.2-8c8.2,5,19.1,10.4,20.4,13.7c0,0,2.4-5.3,0.6-8.7c0,0,6.5,1.6,7.3,8.1C380.8,82,389.1,73.1,380.6,59.3z"/><rect class="st25" height="40.6" transform="matrix(0.9872 -0.1595 0.1595 0.9872 -33.9903 61.1789)" width="1.2" x="363.5" y="222"/><path class="st25" d="M366.1,254.8l-0.2-1.2c0,0,2.5-0.4,3.8-2.3c0.8-1.1,1-2.5,0.8-4.1l-4.1-25.4l1.2-0.2l4.1,25.4     c0.3,2,0,3.7-1,5C369.1,254.4,366.2,254.8,366.1,254.8z"/><path class="st22" d="M327.4,77.3c-1.2,2.6-1,5.4,0.1,7.8c1.3,2.8,5.4,2.6,6.6-0.2l3.4-7.6c1.3-2.8-1.3-5.9-4.3-5.1     C330.7,73,328.5,74.8,327.4,77.3z"/></g></g></g></svg>